<?xml version="1.0" encoding="UTF-8"?>
<svg id="Camada_1" xmlns="http://www.w3.org/2000/svg" version="1.1" viewBox="0 0 652.84 652.69">
  <!-- Generator: Adobe Illustrator 30.1.0, SVG Export Plug-In . SVG Version: 2.1.1 Build 136)  -->
  <defs>
    <style>
      .st0 {
        fill: #fff;
      }
    </style>
  </defs>
  <path class="st0" d="M595.89,0H56.95C25.48,0,0,25.48,0,56.81v539.08c0,31.33,25.48,56.81,56.95,56.81h538.93c31.48,0,56.95-25.48,56.95-56.81V56.81c0-31.33-25.48-56.81-56.95-56.81ZM605.7,459.87l-151.83,151.83h-167.2l232.35-234.84-75.55-75.4-308.05,310.24h-39.68c-26.79,0-48.61-22.25-48.61-49.93v-38.51L358.12,209.66l-75.55-75.55L47.14,371.88v-165.74L213.76,39.53v-.59h343.33c26.94,0,48.61,22.25,48.61,49.93v371Z"/>
</svg>